<?xml version="1.0" standalone="no"?>
<!DOCTYPE svg PUBLIC "-//W3C//DTD SVG 1.1//EN" "http://www.w3.org/Graphics/SVG/1.1/DTD/svg11.dtd" >
<svg xmlns="http://www.w3.org/2000/svg">
<metadata></metadata>
<defs>
<font id="clearviewattregular" horiz-adv-x="1177" >
<font-face units-per-em="2048" ascent="1536" descent="-512" />
<missing-glyph horiz-adv-x="675" />
<glyph horiz-adv-x="0" />
<glyph horiz-adv-x="682" />
<glyph unicode=" "  horiz-adv-x="675" />
<glyph unicode="&#x09;" horiz-adv-x="675" />
<glyph unicode="&#xa0;" horiz-adv-x="675" />
<glyph unicode="!" horiz-adv-x="575" d="M158 94q0 51 36 82t95 31q57 0 93 -31t36 -82q0 -52 -36 -84.5t-93 -32.5q-59 0 -95 32.5t-36 84.5zM186 1366h207q-26 -720 -31 -995h-145q-10 412 -31 995z" />
<glyph unicode="&#x22;" horiz-adv-x="854" d="M123 1434h201l-43 -420h-121zM508 1434h201l-43 -420h-121z" />
<glyph unicode="#" horiz-adv-x="1275" d="M76 526l16 133h246l41 295h-246l17 131h247l41 281h144l-41 -281h288l41 281h144l-45 -281h233l-20 -131h-232l-43 -295h242l-19 -133h-243l-39 -295h-146l41 295h-282l-43 -295h-139l40 295h-243zM479 659h287l43 295h-289z" />
<glyph unicode="$" d="M143 188l78 136q189 -127 365 -127q131 0 200.5 51.5t69.5 146.5q0 75 -44.5 122.5t-137.5 92.5l-238 101q-131 58 -195.5 129.5t-64.5 183.5q0 41 10 80t34.5 78.5t61 70t93.5 51t129 23.5v154h172v-154q149 -6 303 -96l-66 -139q-159 100 -321 100q-238 0 -238 -162 q0 -63 40.5 -99t162.5 -91l199 -84q147 -63 211.5 -145.5t64.5 -207.5q0 -59 -22 -115.5t-64 -105.5t-112.5 -81.5t-159.5 -37.5v-159h-172v159q-174 6 -359 125z" />
<glyph unicode="%" horiz-adv-x="1513" d="M96 1085q0 167 62 258t204 91q144 0 206.5 -91t62.5 -258q0 -80 -14 -141.5t-45 -108.5t-83.5 -71.5t-126.5 -24.5q-142 0 -204 90t-62 256zM221 1085q0 -132 32 -189.5t109 -57.5t110.5 58.5t33.5 190.5q0 46 -3 80t-12 67t-25 53.5t-42 33t-62 12.5t-62 -12.5t-41 -33 t-23.5 -54t-11.5 -67.5t-3 -81zM252 0l878 1434h113l-876 -1434h-115zM883 334q0 167 62 257.5t204 90.5t205 -90.5t63 -257.5q0 -346 -268 -346q-142 0 -204 90t-62 256zM1008 334q0 -132 32 -190t109 -58t109 58.5t32 191.5q0 47 -3 80.5t-11.5 66.5t-23.5 53.5t-41 33 t-62 12.5t-62 -12.5t-41 -33t-23.5 -54t-11.5 -67.5t-3 -81z" />
<glyph unicode="&#x26;" horiz-adv-x="1275" d="M127 379q0 70 23 131.5t65.5 109.5t90.5 85t110 71q-75 82 -120.5 160t-45.5 160q0 57 21.5 108.5t62.5 94t109.5 67.5t154.5 25q71 0 127.5 -18t91.5 -47t57.5 -67t31.5 -74.5t9 -74.5q0 -51 -16.5 -96.5t-40 -78t-67 -68t-78 -58.5t-92.5 -57l321 -443q25 63 25 156 q0 103 -27 213h162q22 -97 22 -217q0 -165 -69 -262l145 -199h-194l-72 96q-141 -119 -340 -119q-119 0 -210.5 32t-146.5 88t-82.5 127t-27.5 155zM299 393q0 -133 81.5 -207.5t213.5 -74.5q73 0 140 25.5t108 66.5l-353 473q-87 -62 -138.5 -130t-51.5 -153zM412 1102 q0 -19 4 -39t16 -43t19 -38t26.5 -42t25 -35t28.5 -37t24 -30q105 70 156 131t51 135q0 29 -7.5 55.5t-24 53.5t-50.5 43t-80 16q-88 0 -138 -48t-50 -122z" />
<glyph unicode="'" horiz-adv-x="446" d="M123 1434h201l-43 -420h-121z" />
<glyph unicode="(" horiz-adv-x="612" d="M100 649q0 247 64.5 458.5t204.5 473.5l123 -29q-216 -453 -216 -903q0 -236 54.5 -454.5t161.5 -446.5l-123 -31q-137 247 -203 465.5t-66 466.5z" />
<glyph unicode=")" horiz-adv-x="612" d="M121 -252q107 227 161 445.5t54 455.5q0 459 -215 903l123 29q139 -261 203.5 -473t64.5 -459q0 -250 -65.5 -469t-202.5 -463z" />
<glyph unicode="*" horiz-adv-x="688" d="M57 1147l49 141l173 -80h2l-31 187h160l-27 -185v-2l172 82l51 -141l-190 -31v-4l133 -133l-123 -90l-92 168h-2l-92 -166l-123 88l133 133v4z" />
<glyph unicode="+" d="M104 459v155h410v408h158v-408h399v-155h-399v-426h-158v426h-410z" />
<glyph unicode="," horiz-adv-x="430" d="M55 -244l80 443h215l-172 -443h-123z" />
<glyph unicode="-" horiz-adv-x="770" d="M106 449v165h558v-165h-558z" />
<glyph unicode="." horiz-adv-x="430" d="M86 94q0 51 35.5 82t93.5 31q57 0 93 -31t36 -82q0 -52 -36 -84.5t-93 -32.5q-58 0 -93.5 32t-35.5 85z" />
<glyph unicode="/" horiz-adv-x="1048" d="M41 -236l811 1670h168l-813 -1670h-166z" />
<glyph unicode="0" d="M109 684q0 175 23.5 300.5t78 219t149 139.5t230.5 46q135 0 228.5 -46t148 -139t78.5 -219t24 -301t-24 -301.5t-78.5 -220.5t-148 -140.5t-228.5 -46.5q-109 0 -191.5 31t-137.5 88t-89 145.5t-48.5 196.5t-14.5 248zM293 684q0 -91 4 -156.5t14.5 -133.5t31 -113 t53 -82t81 -54.5t113.5 -17.5q54 0 97 14t73.5 38t53 63t36 83t21.5 104t11 119t3 136t-3 136t-11 119t-21.5 103.5t-36 82t-53 62t-73.5 37t-97 13.5q-65 0 -113.5 -16.5t-81 -52.5t-53 -80t-31 -111.5t-14.5 -133.5t-4 -159z" />
<glyph unicode="1" d="M141 1118l418 252h152v-1214h325v-156h-843v156h337v1009h-6l-309 -184z" />
<glyph unicode="2" d="M139 166q55 49 141 122.5t133.5 115t114 102.5t103 100.5t79.5 92t64.5 95t36 91.5t14.5 98q0 46 -11.5 87.5t-36 80t-72 61.5t-111.5 23q-176 0 -344 -186l-98 131q110 113 214 161t238 48q188 0 296 -98t108 -290q0 -193 -147 -384t-513 -461h690v-156h-872z" />
<glyph unicode="3" d="M135 117l84 135q165 -127 340 -127q63 0 114.5 14.5t93.5 44.5t65.5 83.5t23.5 125.5q0 131 -65 187.5t-218 56.5h-153v149h63q94 0 162 18t105 51t54 72.5t17 88.5q0 102 -65 160.5t-193 58.5q-168 0 -321 -129l-82 139q112 78 208 111t216 33q90 0 165.5 -22t133.5 -66 t90.5 -115t32.5 -164q0 -222 -199 -295v-4q233 -46 233 -332q0 -68 -16 -128t-52 -113.5t-90 -92t-135 -60.5t-182 -22q-125 0 -228 35t-202 107z" />
<glyph unicode="4" d="M94 446l600 916h201v-913h186v-156h-186v-293h-184v293h-568zM281 449h440v706h-8z" />
<glyph unicode="5" d="M139 758l107 608h725v-156h-582l-72 -381l5 -2q127 107 290 107q205 0 315.5 -114.5t110.5 -350.5q0 -253 -129 -373.5t-368 -120.5q-117 0 -209.5 29.5t-188.5 99.5l78 142q165 -121 322 -121q161 0 236 82.5t75 261.5q0 164 -71.5 240.5t-215.5 76.5q-84 0 -151 -28.5 t-135 -95.5z" />
<glyph unicode="6" d="M111 600q0 143 14 256t50.5 215.5t95.5 170.5t152.5 107.5t217.5 39.5q178 0 334 -93l-78 -139q-66 43 -124.5 60.5t-129.5 17.5q-86 0 -149 -27t-110 -87.5t-71 -163t-26 -248.5h4q102 176 336 176q204 0 321 -118t117 -321q0 -218 -128 -344.5t-339 -126.5 q-259 0 -373 156.5t-114 468.5zM301 428q0 -145 78.5 -223t218.5 -78q136 0 209.5 79.5t73.5 233.5q0 293 -283 293q-134 0 -215.5 -81t-81.5 -224z" />
<glyph unicode="7" d="M133 1210v156h881l28 -154q-90 -77 -155 -148t-111.5 -149.5t-74.5 -155t-44.5 -177.5t-22 -203.5t-5.5 -245.5v-133h-191v61q0 94 2 167t11 173t24.5 179.5t44 172.5t68 168.5t99 150.5t134.5 134v4h-688z" />
<glyph unicode="8" d="M113 391q0 128 53.5 210t171.5 126v8q-96 37 -143.5 114t-47.5 181q0 359 441 359q438 0 438 -359q0 -219 -190 -295v-8q227 -72 227 -336q0 -416 -473 -416q-477 0 -477 416zM297 381q0 -137 70 -198.5t221 -61.5q149 0 220 61t71 205q0 134 -65 202t-226 68 q-146 0 -218.5 -61.5t-72.5 -214.5zM328 1022q0 -227 260 -227q258 0 258 227q0 114 -61.5 166.5t-196.5 52.5q-136 0 -198 -52.5t-62 -166.5z" />
<glyph unicode="9" d="M111 930q0 214 130 336.5t339 122.5q246 0 365.5 -161t119.5 -515q0 -383 -125.5 -559.5t-396.5 -176.5q-212 0 -365 121l90 125q72 -54 132.5 -76t142.5 -22q89 0 150.5 25.5t106.5 88t67.5 172t23.5 271.5h-4q-47 -95 -133.5 -148t-196.5 -53q-203 0 -324.5 120 t-121.5 329zM295 928q0 -136 75 -214.5t212 -78.5q138 0 209 80t71 215q0 147 -72.5 227t-207.5 80q-137 0 -212 -83.5t-75 -225.5z" />
<glyph unicode=":" horiz-adv-x="430" d="M90 94q0 51 34.5 82t92.5 31q57 0 92 -31t35 -82q0 -53 -35 -85t-92 -32t-92 32t-35 85zM90 827q0 51 34.5 82t92.5 31q57 0 92 -31t35 -82q0 -52 -35 -84t-92 -32t-92 32t-35 84z" />
<glyph unicode=";" horiz-adv-x="430" d="M55 -244l78 443h209l-164 -443h-123zM109 825q0 52 35 82.5t92 30.5q59 0 92.5 -30.5t33.5 -82.5t-34.5 -84t-91.5 -32t-92 32t-35 84z" />
<glyph unicode="&#x3c;" d="M104 457v157l967 441v-162l-795 -356l795 -349v-157z" />
<glyph unicode="=" d="M106 270v154h965v-154h-965zM106 653v154h965v-154h-965z" />
<glyph unicode="&#x3e;" d="M104 31v157l797 349l-797 356v162l967 -441v-157z" />
<glyph unicode="?" horiz-adv-x="1054" d="M98 1249q108 74 208 107t220 33q201 0 309.5 -94.5t108.5 -258.5q0 -128 -56 -213t-188 -149l-106 -49q-66 -32 -78 -52t-12 -94v-127h-176v162q0 94 24.5 132.5t110.5 78.5l102 47q118 56 159.5 107t41.5 143q0 103 -68 159t-192 56q-171 0 -320 -121zM283 94 q0 51 36 82t95 31q57 0 93 -31t36 -82q0 -52 -36 -84.5t-93 -32.5q-59 0 -95 32.5t-36 84.5z" />
<glyph unicode="@" horiz-adv-x="1644" d="M127 475q0 151 53 283t148 229.5t237.5 154t313.5 56.5q129 0 242.5 -37t203 -108t141.5 -187.5t52 -263.5q0 -119 -32.5 -215.5t-85.5 -155t-115.5 -89.5t-127.5 -31q-59 0 -100.5 34t-50.5 91h-11q-45 -66 -114.5 -99t-145.5 -33q-125 0 -192.5 81.5t-67.5 232.5 q0 61 12.5 122t41 119.5t70 103t103.5 72t136 27.5q65 0 108 -21.5t78 -68.5h8l10 74h150l-74 -555q-4 -33 13 -57.5t59 -24.5q24 0 52 12t61 42t59 73.5t43.5 114.5t17.5 157q0 233 -149.5 367.5t-390.5 134.5q-155 0 -281 -52t-206.5 -141t-123.5 -204t-43 -244 q0 -285 155.5 -443.5t426.5 -158.5q242 0 416 121l51 -76q-190 -131 -481 -131q-162 0 -290.5 54t-211 148.5t-125.5 219.5t-43 272zM618 408q0 -193 164 -193q90 0 142.5 56t66.5 153l21 154q20 172 -156 172q-115 0 -176.5 -88t-61.5 -254z" />
<glyph unicode="A" horiz-adv-x="1314" d="M45 0l504 1374h209l512 -1374h-201l-117 330h-596l-118 -330h-193zM401 483h500l-246 709h-8z" />
<glyph unicode="B" horiz-adv-x="1302" d="M176 0v1358q197 24 432 24q58 0 103.5 -2.5t101.5 -11.5t98 -24t84 -42.5t68.5 -64.5t43.5 -92.5t17 -124.5q0 -227 -215 -299v-8q127 -23 199 -113t72 -231q0 -172 -107 -270.5t-342 -98.5h-555zM360 143q92 -4 256 -4q51 0 86 1.5t78 7t71.5 15.5t58 28t46.5 43.5 t28 63t11 85.5q0 41 -7.5 74.5t-19.5 58.5t-32.5 44.5t-40 32t-49.5 22t-53 14t-58.5 7t-59 3t-59.5 0.5q-174 0 -256 -2v-494zM362 778q78 -2 250 -2q65 0 110.5 4.5t90 18.5t71 39t42.5 68t16 104q0 68 -23 113.5t-69.5 69t-103 33t-136.5 9.5q-131 0 -248 -12v-445z" />
<glyph unicode="C" horiz-adv-x="1294" d="M133 686q0 115 22.5 217.5t72 192t121 154.5t175.5 102t230 37q133 0 245.5 -46t221.5 -143l-113 -123q-88 82 -169.5 118t-178.5 36q-203 0 -317.5 -137t-114.5 -408q0 -91 12.5 -169t43.5 -150t79 -123t122 -81t169 -30q204 0 374 164l101 -127 q-112 -100 -228.5 -146.5t-252.5 -46.5q-302 0 -458.5 187.5t-156.5 521.5z" />
<glyph unicode="D" horiz-adv-x="1370" d="M176 0v1358q222 24 414 24q310 0 478.5 -181.5t168.5 -508.5q0 -149 -37 -271.5t-112 -218t-201.5 -149t-294.5 -53.5h-416zM362 154q72 -2 197 -2q246 0 364.5 129t118.5 413q0 80 -10.5 151t-41 144.5t-79 125.5t-130 85t-187.5 33q-88 0 -232 -12v-1067z" />
<glyph unicode="E" horiz-adv-x="1093" d="M176 0v1366h815v-158h-629v-407h570v-160h-570v-485h654v-156h-840z" />
<glyph unicode="F" horiz-adv-x="1044" d="M176 0v1366h801v-158h-615v-415h556v-160h-556v-633h-186z" />
<glyph unicode="G" horiz-adv-x="1429" d="M133 682q0 115 23.5 219t74 193.5t123 155t176 102.5t228.5 37q250 0 456 -179l-110 -125q-167 146 -340 146q-96 0 -171.5 -29t-124.5 -78.5t-81 -120.5t-45.5 -149.5t-13.5 -171.5q0 -91 12 -169.5t43 -152t78.5 -124.5t123 -82t173.5 -31q177 0 271.5 95.5t94.5 262.5 v86h-360v154h532v-152q0 -291 -137.5 -440t-408.5 -149q-151 0 -269.5 53t-194 148t-114.5 222t-39 279z" />
<glyph unicode="H" horiz-adv-x="1355" d="M176 0v1366h186v-549h631v549h187v-1366h-187v643h-631v-643h-186z" />
<glyph unicode="I" horiz-adv-x="538" d="M176 0v1366h186v-1366h-186z" />
<glyph unicode="J" horiz-adv-x="917" d="M82 78l80 143q57 -48 104.5 -67t106.5 -19q95 0 138.5 51t43.5 162v1018h186v-1004q0 -191 -84.5 -289t-265.5 -98q-175 0 -309 103z" />
<glyph unicode="K" horiz-adv-x="1185" d="M176 0v1366h186v-645h5l510 645h233l-467 -580l506 -786h-231l-414 657l-142 -161v-496h-186z" />
<glyph unicode="L" horiz-adv-x="1019" d="M176 0v1366h186v-1206h576v-160h-762z" />
<glyph unicode="M" horiz-adv-x="1570" d="M176 0v1366h172l436 -676l437 676h174v-1366h-181v1061h-8l-422 -655l-419 651h-9v-1057h-180z" />
<glyph unicode="N" horiz-adv-x="1435" d="M176 0v1366h184l711 -1051h8v1051h181v-1366h-175l-720 1065h-9v-1065h-180z" />
<glyph unicode="O" horiz-adv-x="1527" d="M133 684q0 151 37.5 276.5t112.5 222.5t198 151.5t283 54.5t282.5 -53.5t198 -149.5t113 -222.5t37.5 -279.5q0 -156 -38 -283t-113.5 -223t-197.5 -148.5t-282 -52.5t-282 52.5t-197.5 148.5t-113.5 223t-38 283zM328 682q0 -90 12 -167t42.5 -150t79 -124t125.5 -81.5 t177 -30.5q101 0 178 30.5t125 81.5t78.5 124t42.5 149.5t12 167.5q0 555 -436 555t-436 -555z" />
<glyph unicode="P" horiz-adv-x="1232" d="M176 0v1358q225 24 428 24q93 0 169.5 -12.5t143 -43t112 -79t71.5 -122.5t26 -171q0 -219 -110.5 -326.5t-343.5 -107.5h-310v-520h-186zM362 670h254q83 0 137.5 10.5t99 40t65 86t20.5 143.5q0 157 -79 219t-255 62q-122 0 -242 -14v-547z" />
<glyph unicode="Q" horiz-adv-x="1527" d="M133 684q0 156 37.5 283t112.5 222t197.5 147.5t283.5 52.5q163 0 285.5 -52t197 -147.5t111.5 -222t37 -283.5q0 -447 -281 -612v-2q39 -10 114.5 -59.5t147.5 -63.5l-57 -140q-60 6 -124 35t-108.5 60.5t-96.5 56.5t-91 25q-20 0 -64 -3.5t-63 -3.5q-164 0 -287.5 52 t-200 147t-114 222.5t-37.5 285.5zM328 682q0 -94 13 -172.5t44 -150t80 -121t125 -78.5t174 -29q436 0 436 553q0 551 -436 551q-100 0 -176.5 -29t-125 -78t-79.5 -121t-43 -150.5t-12 -174.5z" />
<glyph unicode="R" horiz-adv-x="1236" d="M176 0v1360q197 22 410 22q514 0 514 -395q0 -136 -53.5 -227.5t-176.5 -136.5v-2q20 -8 38 -33.5t26 -52.5l203 -535h-197l-178 492q-15 44 -42 61.5t-75 17.5h-283v-571h-186zM362 721h269q141 0 212.5 56.5t71.5 195.5q0 76 -24.5 129t-71.5 80.5t-101.5 39 t-127.5 11.5q-116 0 -228 -14v-498z" />
<glyph unicode="S" horiz-adv-x="1103" d="M74 127l86 139q189 -139 379 -139q127 0 199.5 60.5t72.5 183.5q0 31 -9 58t-21.5 47t-37 40.5t-44.5 33.5t-56 30t-59 26t-66.5 26.5t-66.5 26.5q-60 24 -102.5 44.5t-90 54t-77 71t-49 92.5t-19.5 121q0 90 36 158.5t98 108t137 58.5t161 19q215 0 413 -120l-69 -150 q-167 119 -338 119q-108 0 -179 -46.5t-71 -141.5q0 -30 9 -55.5t20.5 -44.5t36 -38.5t43 -31t56 -27.5t58.5 -24.5t66 -24.5q42 -15 65 -23.5t62.5 -25.5t63.5 -30t57.5 -34.5t53.5 -42.5t43 -50t35 -60.5t20.5 -71t8.5 -84.5q0 -196 -120 -299t-328 -103q-135 0 -248 36 t-229 114z" />
<glyph unicode="T" horiz-adv-x="1034" d="M39 1204v162h956v-162h-385v-1204h-186v1204h-385z" />
<glyph unicode="U" horiz-adv-x="1370" d="M176 530v836h186v-836q0 -93 14.5 -161.5t49.5 -123.5t99.5 -83.5t158.5 -28.5t159 28.5t100 83.5t50 123.5t15 161.5v836h186v-836q0 -285 -121.5 -419t-388.5 -134t-387.5 133.5t-120.5 419.5z" />
<glyph unicode="V" horiz-adv-x="1179" d="M45 1366h199l344 -1159h8l344 1159h195l-443 -1366h-207z" />
<glyph unicode="W" horiz-adv-x="1875" d="M61 1366h205l258 -1151h11l311 1151h188l312 -1151h8l262 1151h199l-357 -1366h-213l-307 1102h-8l-301 -1102h-228z" />
<glyph unicode="X" horiz-adv-x="1155" d="M35 0l436 709l-385 657h217l279 -516h8l291 516h215l-400 -672l424 -694h-217l-323 551h-9l-321 -551h-215z" />
<glyph unicode="Y" horiz-adv-x="1171" d="M27 1366h211l350 -659l352 659h205l-465 -823v-543h-186v537z" />
<glyph unicode="Z" horiz-adv-x="1142" d="M94 0v154l721 1050h-690v162h905v-152l-721 -1058h740v-156h-955z" />
<glyph unicode="[" horiz-adv-x="634" d="M119 -213v1774h379v-115h-215v-1544h215v-115h-379z" />
<glyph unicode="\" horiz-adv-x="1048" d="M45 1366h170l778 -1602h-168z" />
<glyph unicode="]" horiz-adv-x="634" d="M127 -98h211v1544h-211v115h373v-1774h-373v115z" />
<glyph unicode="^" horiz-adv-x="749" d="M6 1169l363 215l366 -215l-96 -94l-268 158l-277 -158z" />
<glyph unicode="_" horiz-adv-x="991" d="M-16 -174h1024v-121h-1024v121z" />
<glyph unicode="`" horiz-adv-x="733" d="M125 1380l180 82l277 -243l-101 -62z" />
<glyph unicode="a" horiz-adv-x="1083" d="M92 287q0 71 23 128.5t59.5 96t92 66.5t110 43t124 24.5t122.5 11.5t118 2v101q-4 84 -50 121t-140 37q-181 0 -367 -117l-63 125q230 127 446 127q184 0 268.5 -81.5t84.5 -266.5v-492q3 -83 67 -111l-106 -118q-51 19 -79 47t-38 80h-8q-163 -134 -340 -134 q-142 0 -233 83t-91 227zM268 297q0 -92 53.5 -144.5t139.5 -52.5q78 0 142 29t142 88v334q-46 0 -81 -1t-88 -6.5t-92 -15.5t-82 -29t-70.5 -45t-45.5 -66.5t-18 -90.5z" />
<glyph unicode="b" horiz-adv-x="1155" d="M156 0v1434h178v-531h2q81 150 299 150q93 0 165 -29t118 -78t75.5 -119t41.5 -146t12 -165q0 -86 -13 -162.5t-43.5 -146.5t-77 -120t-117 -80t-159.5 -30q-232 0 -313 187h-9l-26 -164h-133zM332 410q0 -131 66.5 -215t193.5 -84q272 0 272 403q0 47 -2 84.5t-9 80.5 t-19 75t-32.5 63.5t-48 51.5t-68 32t-91.5 12q-121 0 -191.5 -62.5t-70.5 -182.5v-258z" />
<glyph unicode="c" horiz-adv-x="1013" d="M109 508q0 246 125.5 395.5t361.5 149.5q195 0 356 -129l-78 -125q-112 112 -272 112q-69 0 -123.5 -22t-89 -59t-57 -88.5t-32 -107t-9.5 -118.5q0 -81 15.5 -149t50 -125.5t97 -90t148.5 -32.5q83 0 150.5 26t134.5 84l61 -125q-165 -127 -356 -127 q-234 0 -358.5 145.5t-124.5 385.5z" />
<glyph unicode="d" horiz-adv-x="1155" d="M109 516q0 89 12 164.5t41.5 145.5t75 119t117.5 78.5t165 29.5q97 0 168.5 -32.5t124.5 -111.5h8v525h178v-1434h-149l-10 158h-9q-94 -181 -311 -181q-90 0 -161 29t-117.5 78t-76.5 118.5t-43 147t-13 166.5zM291 514q0 -403 274 -403q126 0 192 83.5t66 215.5v258 q0 120 -70.5 182.5t-191.5 62.5q-51 0 -91.5 -12t-68.5 -32t-48.5 -51.5t-32 -63.5t-18.5 -75t-9 -80.5t-2 -84.5z" />
<glyph unicode="e" horiz-adv-x="1112" d="M109 514q0 255 128 398t343 143q202 0 316 -142.5t114 -375.5q0 -57 -2 -80h-721q0 -161 79 -251.5t230 -90.5q158 0 305 106l64 -123q-169 -121 -375 -121q-234 0 -357.5 143t-123.5 394zM287 578h557q0 70 -15 130.5t-45.5 109.5t-82.5 77.5t-119 28.5 q-81 0 -140.5 -30t-92 -81.5t-47.5 -110t-15 -124.5z" />
<glyph unicode="f" horiz-adv-x="653" d="M55 883v145h158v152q0 74 11 120t41.5 80.5t86.5 49t146 14.5q55 0 127 -10v-136q-57 11 -97 11q-90 0 -115.5 -27t-25.5 -113v-141h221v-143h-215v-885h-180v883h-158z" />
<glyph unicode="g" horiz-adv-x="1155" d="M109 516q0 89 11.5 164.5t40.5 145.5t74.5 119t118 78.5t166.5 29.5q106 0 181 -36.5t128 -123.5h9l10 135h151v-1096q0 -99 -20 -170.5t-53 -114.5t-86.5 -68t-109 -33.5t-130.5 -8.5q-230 0 -424 105l55 139q181 -105 365 -105q126 0 175.5 46t49.5 172v268h-8 q-52 -92 -119.5 -131t-167.5 -39q-112 0 -194.5 40.5t-130 113.5t-70 165t-22.5 205zM291 518q0 -81 13 -147t42.5 -122.5t84.5 -88t132 -31.5q128 0 194 82.5t66 214.5v240q0 121 -70.5 184t-191.5 63q-58 0 -102.5 -15t-73.5 -44.5t-48 -64.5t-29 -82.5t-13.5 -91 t-3.5 -97.5z" />
<glyph unicode="h" horiz-adv-x="1155" d="M156 0v1434h178v-533h8q83 152 305 152q103 0 173 -27t108.5 -83t54.5 -128t16 -174v-641h-178v602q0 44 -1.5 73.5t-6.5 64t-14 56.5t-25 43.5t-39.5 34t-57 20t-77.5 7.5q-129 0 -197.5 -66t-68.5 -190v-645h-178z" />
<glyph unicode="i" horiz-adv-x="489" d="M133 1282q0 46 30.5 74t80.5 28q52 0 82 -28t30 -74q0 -45 -30.5 -72.5t-81.5 -27.5q-49 0 -80 28t-31 72zM156 0v1028h178v-1028h-178z" />
<glyph unicode="j" horiz-adv-x="501" d="M-139 -303q61 -6 112 -6q62 0 101.5 15t59.5 49.5t27 75.5t7 106v1091h178v-1108q0 -190 -82.5 -286.5t-265.5 -96.5q-77 0 -137 8v152zM143 1282q0 50 32.5 76t78.5 26q49 0 81 -26t32 -76q0 -47 -32.5 -73.5t-80.5 -26.5q-46 0 -78.5 26.5t-32.5 73.5z" />
<glyph unicode="k" horiz-adv-x="1032" d="M156 0v1434h178v-895h8l395 489h226l-351 -405l381 -623h-215l-295 506l-149 -174v-332h-178z" />
<glyph unicode="l" horiz-adv-x="557" d="M156 199v1235h178v-1190q0 -69 20 -86t82 -17h64v-141q-52 -10 -138 -10q-112 0 -159 46t-47 163z" />
<glyph unicode="m" horiz-adv-x="1722" d="M156 0v1028h155l17 -131h4q83 156 280 156q215 0 283 -164q96 164 311 164q196 0 278.5 -104t82.5 -308v-641h-178v623q0 53 -3.5 91t-16 75.5t-33.5 60.5t-58 37t-88 14q-116 0 -178 -58t-62 -175v-668h-178v631q0 67 -7.5 112t-29 83.5t-63.5 56.5t-107 18 q-103 0 -167 -69t-64 -170v-662h-178z" />
<glyph unicode="n" horiz-adv-x="1155" d="M156 0v1028h153l15 -129h8q101 154 311 154q105 0 175.5 -27t109.5 -83t55 -127.5t16 -172.5v-643h-178v602q0 77 -7 124.5t-29 91t-68 63.5t-119 20q-128 0 -196 -67t-68 -189v-645h-178z" />
<glyph unicode="o" horiz-adv-x="1175" d="M109 512q0 116 27 211.5t82.5 170.5t149.5 117t218 42q160 0 269.5 -70.5t160.5 -190t51 -280.5q0 -115 -28.5 -211t-86 -169t-151 -114t-215.5 -41q-121 0 -214 40.5t-149.5 113.5t-85 169t-28.5 212zM291 514q0 -399 297 -399t297 399q0 397 -297 397t-297 -397z" />
<glyph unicode="p" horiz-adv-x="1155" d="M156 -451v1479h149l14 -131h5q99 156 307 156q95 0 168 -29.5t119.5 -78.5t76 -119.5t41 -146t11.5 -163.5q0 -89 -13 -166t-44 -146.5t-78.5 -119t-120.5 -78.5t-166 -29q-194 0 -287 158l-4 2v-588h-178zM332 412q0 -133 65.5 -217t190.5 -84q276 0 276 403 q0 56 -3.5 99.5t-13 92t-28.5 83.5t-48.5 64.5t-75 44.5t-105.5 15q-120 0 -189 -62.5t-69 -184.5v-254z" />
<glyph unicode="q" horiz-adv-x="1155" d="M109 516q0 89 11.5 164.5t40.5 145.5t74.5 119t118 78.5t166.5 29.5q217 0 307 -156h9l14 131h149v-1235q0 -67 14.5 -95t69.5 -52l-98 -131q-92 30 -128 81.5t-36 159.5v381h-8q-47 -84 -117.5 -122t-171.5 -38q-92 0 -164.5 30t-119 80t-76.5 120.5t-42.5 146 t-12.5 162.5zM291 514q0 -62 6.5 -115t25 -107.5t48 -93t79 -63t115.5 -24.5q126 0 192 83.5t66 215.5v258q0 118 -70 181.5t-192 63.5q-71 0 -121.5 -23.5t-79 -58.5t-44.5 -91.5t-20.5 -106.5t-4.5 -119z" />
<glyph unicode="r" horiz-adv-x="735" d="M156 0v1028h151l17 -131h2q89 154 315 154h53v-158h-45q-155 0 -235 -54.5t-80 -187.5v-651h-178z" />
<glyph unicode="s" horiz-adv-x="921" d="M72 86l65 131q74 -47 162 -75.5t166 -28.5q92 0 146.5 40.5t54.5 125.5q0 32 -14 58t-31 41.5t-55 32t-59.5 23t-72.5 21.5q-63 19 -102 33t-88.5 40.5t-77 57.5t-47 79.5t-19.5 110.5q0 134 103.5 205.5t265.5 71.5q171 0 334 -80l-51 -135q-56 33 -130.5 54t-144.5 21 q-93 0 -150 -34t-57 -109q0 -17 3.5 -31t13 -26.5t18 -22t26 -19t29.5 -15.5t36 -14.5t37.5 -13t42.5 -13t44 -13.5q40 -13 66.5 -22t63 -25.5t60 -32t50 -39.5t41.5 -51t25 -63.5t10 -79.5q0 -156 -101 -234t-268 -78q-215 0 -395 109z" />
<glyph unicode="t" horiz-adv-x="720" d="M45 883v145h172v283h176v-283h244v-145h-244v-598q0 -38 2.5 -58t11.5 -40.5t28 -29.5t52 -14.5t84 -5.5q37 0 66 2v-141q-72 -10 -131 -10q-74 0 -125.5 11.5t-84 32t-50.5 55.5t-24.5 74.5t-6.5 96.5v625h-170z" />
<glyph unicode="u" horiz-adv-x="1136" d="M156 393v635h178v-543q0 -64 2.5 -106.5t9.5 -87.5t22 -72t38.5 -49.5t59.5 -32.5t85 -10q138 0 195 69t57 201v631h178v-1028h-150l-16 129h-6q-90 -152 -309 -152q-87 0 -147 18.5t-106.5 64.5t-68.5 128.5t-22 204.5z" />
<glyph unicode="v" horiz-adv-x="993" d="M41 1028h190l269 -870h8l260 870h184l-346 -1028h-215z" />
<glyph unicode="w" horiz-adv-x="1529" d="M51 1028h185l210 -852h9l235 852h146l237 -852h8l217 852h181l-299 -1028h-191l-223 764h-8l-223 -764h-191z" />
<glyph unicode="x" horiz-adv-x="972" d="M31 0l352 543l-311 485h202l218 -373h8l215 373h190l-307 -479l344 -549h-203l-247 424h-9l-247 -424h-205z" />
<glyph unicode="y" horiz-adv-x="1013" d="M37 1028h192l285 -801h8l264 801h191l-432 -1161q-73 -199 -140 -264.5t-204 -65.5q-43 0 -111 6v152q35 -6 90 -6q76 0 112 40.5t83 172.5l49 135z" />
<glyph unicode="z" horiz-adv-x="929" d="M80 0v139l551 744h-539v145h742v-145l-549 -738h565v-145h-770z" />
<glyph unicode="{" horiz-adv-x="712" d="M131 598v141q65 14 88 57.5t23 116.5v379q0 139 50 206t183 67h100v-119h-53q-34 0 -57 -8.5t-34.5 -18.5t-17.5 -35t-6.5 -40.5t-0.5 -52.5v-6.5v-6v-6.5v-381q0 -81 -22.5 -125.5t-88.5 -95.5q66 -51 88.5 -96.5t22.5 -127.5v-366q0 -46 1.5 -69.5t7.5 -48t18.5 -35 t33.5 -17t55 -6.5h53v-117h-96q-72 0 -119 17t-72.5 53.5t-35.5 83t-10 116.5v367q0 73 -23 116.5t-88 57.5z" />
<glyph unicode="|" horiz-adv-x="477" d="M168 -410v1926h141v-1926h-141z" />
<glyph unicode="}" horiz-adv-x="712" d="M137 -96h53q28 0 47.5 3.5t33 13.5t20.5 21t10.5 34.5t4.5 44t1 59.5v366q0 83 22 128t87 96q-66 51 -87.5 95t-21.5 126v381q0 91 -8 116q-26 56 -106 58h-56v119h99q133 0 183 -67t50 -206v-379q0 -72 24.5 -116t88.5 -58v-141q-67 -14 -90 -57t-23 -117v-367 q0 -140 -50 -205t-186 -65h-96v117z" />
<glyph unicode="~" horiz-adv-x="849" d="M25 1171q45 82 96.5 115t130.5 33q62 0 172.5 -41t163.5 -41q87 0 127 82l114 -45q-29 -72 -87 -110t-136 -38q-64 0 -175 41t-165 41q-46 0 -76.5 -18t-56.5 -68z" />
<glyph unicode="&#xa1;" horiz-adv-x="575" d="M158 938q0 52 36 84.5t93 32.5q59 0 95 -32.5t36 -84.5q0 -51 -36 -82t-95 -31q-57 0 -93 31t-36 82zM182 -334q26 719 31 996h145q10 -415 31 -996h-207z" />
<glyph unicode="&#xa2;" d="M162 696q0 213 98 354.5t291 168.5v147h168v-145q151 -14 289 -121l-78 -127q-116 110 -275 110q-83 0 -144.5 -29.5t-97 -83t-52.5 -120.5t-17 -150q0 -86 16 -156.5t50.5 -127t95.5 -88t143 -31.5q151 0 285 121l78 -115q-132 -120 -293 -143v-160h-168v160 q-99 12 -175 58.5t-122 119t-69 162.5t-23 196z" />
<glyph unicode="&#xa3;" d="M129 0v145h41q92 0 145.5 68t53.5 188q0 97 -39 265h-172v141h149q-2 9 -12 49t-12.5 51.5t-9 42.5t-8.5 47.5t-4.5 40t-2.5 43.5q0 148 97.5 228t273.5 80q198 0 362 -95l-45 -153q-142 94 -287 94q-116 0 -167.5 -45t-51.5 -141q0 -34 5.5 -70.5t17.5 -94t16 -77.5h309 v-141h-282q45 -173 45 -273q0 -154 -90 -231v-6h588v-156h-920z" />
<glyph unicode="&#xa4;" d="M104 309l144 144q-80 104 -80 243v9q0 130 80 233l-144 145l97 97l145 -148q108 78 240 78q128 0 239 -80l150 148l96 -97l-147 -145q80 -107 80 -240q0 -130 -80 -241l147 -148l-96 -96l-148 147q-107 -77 -241 -77q-133 0 -240 77l-145 -145zM326 696 q0 -107 76.5 -183.5t183.5 -76.5q109 0 185.5 76.5t76.5 183.5q0 109 -76.5 185.5t-185.5 76.5q-107 0 -183.5 -76.5t-76.5 -185.5z" />
<glyph unicode="&#xa5;" d="M59 1366h211l326 -666l322 666h200l-319 -625h254v-123h-326l-41 -71v-133h367v-123h-367v-291h-184v291h-371v123h371v123l-47 81h-324v123h250z" />
<glyph unicode="&#xa6;" horiz-adv-x="477" d="M168 -410v830h141v-830h-141zM168 686v830h141v-830h-141z" />
<glyph unicode="&#xa7;" horiz-adv-x="970" d="M96 582q0 118 80.5 177.5t214.5 67.5v7q-119 41 -195.5 112t-76.5 170q0 125 96.5 199t276.5 74q159 0 329 -70l-49 -143q-137 73 -266 73q-203 0 -203 -129q0 -95 137 -153q133 -49 240 -101q98 -46 144 -99t46 -149q0 -105 -69 -171t-221 -76v-6q294 -93 294 -314 q0 -39 -9.5 -75.5t-35.5 -75t-66 -67t-108 -46.5t-155 -18q-108 0 -196 23.5t-181 78.5l63 133q155 -100 308 -100q194 0 194 147q0 56 -35 94t-129 80q-84 27 -196 82q-124 58 -178 121t-54 154zM262 588q0 -19 3.5 -36t17 -39.5t36.5 -38.5t65 -27t99 -11q115 0 167 37.5 t52 116.5q0 70 -48 110.5t-171 40.5q-35 0 -62.5 -2.5t-59 -12t-52 -25.5t-34 -45t-13.5 -68z" />
<glyph unicode="&#xa8;" horiz-adv-x="733" d="M72 1274q0 43 30.5 73.5t71.5 30.5q43 0 74 -30.5t31 -73.5q0 -41 -31 -72t-74 -31q-41 0 -71.5 31t-30.5 72zM455 1274q0 43 30.5 73.5t73.5 30.5q41 0 72 -31t31 -73q0 -41 -31 -72t-72 -31q-43 0 -73.5 30.5t-30.5 72.5z" />
<glyph unicode="&#xa9;" horiz-adv-x="1773" d="M178 684q0 144 56 274.5t151 225t226.5 150t275.5 55.5q192 0 355 -94t258 -256.5t95 -354.5q0 -144 -56 -274.5t-151 -224.5t-226 -149.5t-275 -55.5t-275 55.5t-226.5 149.5t-151.5 224.5t-56 274.5zM258 684q0 -169 85 -313.5t230 -229t314 -84.5q170 0 315.5 84.5 t230.5 229t85 313.5q0 171 -82.5 316.5t-228 231t-320.5 85.5q-131 0 -248 -50.5t-200.5 -136t-132 -202t-48.5 -244.5zM494 686q0 213 101 328.5t314 115.5q177 0 318 -129l-72 -92q-108 111 -244 111q-158 0 -221 -84t-63 -248q0 -169 61.5 -255.5t218.5 -86.5 q135 0 252 111l68 -92q-148 -132 -322 -132q-115 0 -196.5 33t-127.5 95.5t-66.5 141.5t-20.5 183z" />
<glyph unicode="&#xaa;" horiz-adv-x="798" d="M121 942q0 232 393 232v16q0 62 -19 85t-85 23q-124 0 -236 -63l-43 88q145 74 283 74q117 0 169 -49.5t52 -163.5v-266q0 -35 7 -47t38 -31l-76 -82q-64 20 -78 67h-4q-93 -71 -207 -71q-88 0 -141 49t-53 139zM242 942q0 -46 29 -75t73 -29q76 0 170 65v195 q-272 0 -272 -156z" />
<glyph unicode="&#xab;" horiz-adv-x="929" d="M39 627l293 413l121 -67l-252 -348l254 -342l-121 -70zM430 627l285 401l123 -67l-246 -336l244 -330l-121 -70z" />
<glyph unicode="&#xac;" d="M104 459v155h967v-524h-153v369h-814z" />
<glyph unicode="&#xad;" horiz-adv-x="770" d="M106 449v165h558v-165h-558z" />
<glyph unicode="&#xae;" horiz-adv-x="927" d="M106 1085q0 145 105 247t254 102q148 0 252 -102t104 -247q0 -143 -104.5 -244.5t-251.5 -101.5q-149 0 -254 101.5t-105 244.5zM158 1087q0 -120 91.5 -208t215.5 -88t215.5 86.5t91.5 209.5q0 121 -90 209t-215 88q-129 0 -219 -88t-90 -209zM332 899v379q106 8 135 8 q158 0 158 -123q0 -61 -62 -100l70 -164h-88l-53 131q-5 8 -8 10t-13 2h-61v-143h-78zM410 1104h63q34 0 53 14.5t19 40.5q0 60 -76 60q-12 0 -32 -1t-27 -1v-113z" />
<glyph unicode="&#xaf;" horiz-adv-x="733" d="M59 1206v117h611v-117h-611z" />
<glyph unicode="&#xb0;" horiz-adv-x="839" d="M127 1104q0 122 85.5 207.5t207.5 85.5t207.5 -85.5t85.5 -207.5q0 -123 -85.5 -209t-207.5 -86t-207.5 86t-85.5 209zM203 1104q0 -90 63.5 -153.5t153.5 -63.5q91 0 154 63t63 154q0 89 -63 152t-154 63q-89 0 -153 -63t-64 -152z" />
<glyph unicode="&#xb1;" d="M104 0v150h967v-150h-967zM104 578v153h410v387h158v-387h399v-153h-399v-345h-158v345h-410z" />
<glyph unicode="&#xb2;" horiz-adv-x="632" d="M66 862q45 38 104.5 86t90 73t66.5 57.5t52 54.5t27.5 48.5t11.5 53.5q0 39 -24 66.5t-79 27.5q-49 0 -87 -19t-81 -65l-69 80q112 109 250 109q101 0 159 -49.5t58 -141.5q0 -56 -25.5 -105t-99.5 -117.5t-213 -166.5h346v-102h-469z" />
<glyph unicode="&#xb3;" horiz-adv-x="618" d="M55 817l54 88q83 -67 172 -67q62 0 98.5 28t36.5 84q0 55 -29.5 78t-93.5 23h-88v90h49q72 0 107.5 28t35.5 72q0 42 -28 67t-80 25q-98 0 -166 -65l-57 86q61 44 114 62t121 18q101 0 160 -47t59 -142q0 -45 -26.5 -81t-69.5 -54v-2q115 -27 115 -166q0 -95 -60 -149 t-186 -54q-137 0 -238 78z" />
<glyph unicode="&#xb4;" horiz-adv-x="733" d="M152 1221l280 247l176 -86l-356 -225z" />
<glyph unicode="&#xb5;" horiz-adv-x="1189" d="M178 -451v1479h180v-541q0 -49 1 -81t4 -70t9.5 -62.5t17 -50.5t26.5 -41t38.5 -28.5t52.5 -19t68 -5.5q136 0 193 69t57 199v631h181v-1028h-152l-16 129h-7q-30 -48 -61.5 -78t-88 -52t-132.5 -22q-158 0 -209 97v-525h-162z" />
<glyph unicode="&#xb6;" horiz-adv-x="999" d="M86 516q0 108 39 200.5t112.5 162.5t189 109.5t259.5 39.5h137v-1028h-137q-286 0 -443 144.5t-157 371.5z" />
<glyph unicode="&#xb7;" horiz-adv-x="430" d="M84 487q0 51 35.5 82t93.5 31t93.5 -31t35.5 -82q0 -52 -36 -84t-93 -32t-93 32t-36 84z" />
<glyph unicode="&#xb8;" horiz-adv-x="733" d="M188 -373l31 72q74 -39 129 -39q51 0 80 18.5t29 65.5q0 80 -105 80q-43 0 -73 -12l-37 30l82 158h96l-60 -104h2q8 0 26 1t26 1q69 0 108 -39t39 -113q0 -76 -54 -122t-151 -46q-79 0 -168 49z" />
<glyph unicode="&#xb9;" horiz-adv-x="573" d="M51 1300l213 121h101v-569h161v-100h-456v100h170v434h-7l-141 -78z" />
<glyph unicode="&#xba;" horiz-adv-x="798" d="M106 1075q0 150 76 236t217 86q140 0 216.5 -84t76.5 -238q0 -152 -76.5 -236.5t-216.5 -84.5q-139 0 -216 85t-77 236zM231 1075q0 -121 43 -172t127 -51q83 0 125.5 51t42.5 172q0 108 -38 163.5t-132 55.5q-93 0 -130.5 -55t-37.5 -164z" />
<glyph unicode="&#xbb;" horiz-adv-x="929" d="M90 961l123 67l287 -401l-287 -402l-121 70l246 330zM473 973l123 67l295 -413l-295 -414l-121 70l252 342z" />
<glyph unicode="&#xbc;" horiz-adv-x="1527" d="M125 1300l213 121h100v-569h162v-100h-457v100h170v434h-6l-141 -78zM285 0l999 1434h109l-1000 -1434h-108zM911 233l310 437h135v-430h104v-103h-104v-137h-127v137h-287zM1026 233h207v314z" />
<glyph unicode="&#xbd;" horiz-adv-x="1470" d="M109 1300l213 121h100v-569h162v-100h-457v100h170v434h-6l-141 -78zM205 0l999 1434h109l-1000 -1434h-108zM901 111q45 38 104 86t90 72.5t66.5 57t52 54.5t28 48.5t11.5 53.5q0 40 -23.5 67.5t-78.5 27.5q-49 0 -87 -19t-81 -65l-70 79q112 109 250 109 q102 0 159.5 -49t57.5 -141q0 -84 -68 -165.5t-270 -224.5h347v-102h-469z" />
<glyph unicode="&#xbe;" horiz-adv-x="1447" d="M127 817l53 88q83 -67 172 -67q62 0 98.5 28t36.5 84q0 55 -29 78t-93 23h-89v90h50q72 0 107.5 28t35.5 72q0 42 -28.5 67t-80.5 25q-97 0 -165 -65l-58 86q61 44 114.5 62t121.5 18q101 0 160 -47t59 -142q0 -45 -26.5 -81t-69.5 -54v-2q114 -27 114 -166 q0 -95 -59.5 -149t-185.5 -54q-137 0 -238 78zM246 0l999 1434h109l-1000 -1434h-108zM846 233l309 437h135v-430h105v-103h-105v-137h-127v137h-286zM961 233h206v314z" />
<glyph unicode="&#xbf;" horiz-adv-x="1054" d="M147 -4q0 128 56 213t188 149l107 50q66 32 78 51.5t12 93.5v127h176v-162q0 -94 -24.5 -132.5t-110.5 -78.5l-103 -47q-118 -56 -159 -107t-41 -143q0 -103 68 -159t192 -56q170 0 319 121l88 -133q-108 -74 -207.5 -106.5t-220.5 -32.5q-201 0 -309.5 94t-108.5 258z M549 938q0 52 36 84.5t93 32.5q59 0 95 -32.5t36 -84.5q0 -51 -36 -82t-95 -31q-57 0 -93 31t-36 82z" />
<glyph unicode="&#xc0;" horiz-adv-x="1314" d="M45 0l504 1374h209l512 -1374h-201l-117 330h-596l-118 -330h-193zM324 1667l180 82l276 -244l-100 -61zM401 483h500l-246 709h-8z" />
<glyph unicode="&#xc1;" horiz-adv-x="1314" d="M45 0l504 1374h209l512 -1374h-201l-117 330h-596l-118 -330h-193zM401 483h500l-246 709h-8zM532 1507l281 248l176 -86l-356 -225z" />
<glyph unicode="&#xc2;" horiz-adv-x="1314" d="M45 0l504 1374h209l512 -1374h-201l-117 330h-596l-118 -330h-193zM332 1542l317 201l322 -201l-78 -102l-242 162l-243 -162zM401 483h500l-246 709h-8z" />
<glyph unicode="&#xc3;" horiz-adv-x="1314" d="M45 0l504 1374h209l512 -1374h-201l-117 330h-596l-118 -330h-193zM315 1522q35 80 81.5 112.5t109.5 32.5q52 0 149 -41t133 -41q78 0 109 82l92 -68q-21 -70 -73 -107.5t-115 -37.5q-52 0 -149 41t-132 41q-81 0 -114 -84zM401 483h500l-246 709h-8z" />
<glyph unicode="&#xc4;" horiz-adv-x="1314" d="M45 0l504 1374h209l512 -1374h-201l-117 330h-596l-118 -330h-193zM358 1561q0 43 31 73.5t72 30.5q43 0 73.5 -30.5t30.5 -73.5q0 -41 -30.5 -72t-73.5 -31q-41 0 -72 31t-31 72zM401 483h500l-246 709h-8zM741 1561q0 43 31 73.5t74 30.5q41 0 71.5 -30.5t30.5 -73.5 q0 -41 -30.5 -72t-71.5 -31q-43 0 -74 31t-31 72z" />
<glyph unicode="&#xc5;" horiz-adv-x="1314" d="M45 0l473 1292q-50 30 -80 81.5t-30 113.5q0 100 70.5 167.5t172.5 67.5t172 -67t70 -168q0 -61 -29 -112t-78 -81l484 -1294h-201l-117 330h-596l-118 -330h-193zM401 483h500l-248 713h-4zM518 1487q0 -58 38 -96.5t95 -38.5q56 0 93.5 38.5t37.5 96.5q0 57 -37.5 94 t-93.5 37q-57 0 -95 -37t-38 -94z" />
<glyph unicode="&#xc6;" horiz-adv-x="1839" d="M45 0l760 1366h936v-156h-633v-407h571v-160h-571v-487h653v-156h-837v336h-504l-178 -336h-197zM496 496h430v710h-27z" />
<glyph unicode="&#xc7;" horiz-adv-x="1294" d="M133 686q0 115 22.5 217.5t72 192t121 154.5t175.5 102t230 37q133 0 245.5 -46t221.5 -143l-113 -123q-88 82 -169.5 118t-178.5 36q-203 0 -317.5 -137t-114.5 -408q0 -91 12.5 -169t43.5 -150t79 -123t122 -81t169 -30q204 0 374 164l101 -127q-106 -96 -216 -142 t-237 -51l-51 -90l2 -2q28 4 51 4q69 0 109.5 -38.5t40.5 -110.5q0 -76 -55.5 -122t-147.5 -46q-99 0 -172 49l33 72q67 -39 133 -39q44 0 73 19.5t29 62.5q0 82 -100 82q-41 0 -78 -13l-37 31l76 144q-270 20 -409.5 204.5t-139.5 501.5z" />
<glyph unicode="&#xc8;" horiz-adv-x="1093" d="M176 0v1366h815v-158h-629v-407h570v-160h-570v-485h654v-156h-840zM317 1667l181 82l276 -244l-100 -61z" />
<glyph unicode="&#xc9;" horiz-adv-x="1093" d="M176 0v1366h815v-158h-629v-407h570v-160h-570v-485h654v-156h-840zM453 1507l280 248l176 -86l-356 -225z" />
<glyph unicode="&#xca;" horiz-adv-x="1093" d="M176 0v1366h815v-158h-629v-407h570v-160h-570v-485h654v-156h-840zM268 1542l318 201l321 -201l-78 -102l-241 162l-244 -162z" />
<glyph unicode="&#xcb;" horiz-adv-x="1093" d="M176 0v1366h815v-158h-629v-407h570v-160h-570v-485h654v-156h-840zM295 1561q0 43 30.5 73.5t71.5 30.5q43 0 74 -30.5t31 -73.5q0 -41 -31 -72t-74 -31q-41 0 -71.5 31t-30.5 72zM678 1561q0 43 30.5 73.5t73.5 30.5q42 0 72.5 -30.5t30.5 -73.5q0 -41 -31 -72t-72 -31 q-42 0 -73 31t-31 72z" />
<glyph unicode="&#xcc;" horiz-adv-x="538" d="M-59 1667l180 82l276 -244l-100 -61zM176 0v1366h186v-1366h-186z" />
<glyph unicode="&#xcd;" horiz-adv-x="538" d="M152 1507l280 248l176 -86l-356 -225zM176 0v1366h186v-1366h-186z" />
<glyph unicode="&#xce;" horiz-adv-x="538" d="M-41 1542l317 201l322 -201l-78 -102l-241 162l-244 -162zM176 0v1366h186v-1366h-186z" />
<glyph unicode="&#xcf;" horiz-adv-x="538" d="M-23 1561q0 43 30.5 73.5t72.5 30.5q43 0 73.5 -30.5t30.5 -73.5q0 -41 -31 -72t-73 -31q-41 0 -72 31t-31 72zM176 0v1366h186v-1366h-186zM360 1561q0 43 31 73.5t74 30.5q41 0 71.5 -30.5t30.5 -73.5q0 -41 -30.5 -72t-71.5 -31q-43 0 -74 31t-31 72z" />
<glyph unicode="&#xd0;" horiz-adv-x="1370" d="M47 651v154h131v553q250 24 412 24q214 0 360.5 -86.5t216.5 -239.5t70 -364q0 -118 -22.5 -219.5t-72.5 -189.5t-125 -150t-186 -97.5t-249 -35.5h-404v651h-131zM362 154q63 -2 197 -2q257 0 371 133.5t114 408.5q0 83 -11 155t-42 144t-79 122.5t-128 82t-184 31.5 q-130 0 -238 -12v-412h320v-154h-320v-497z" />
<glyph unicode="&#xd1;" horiz-adv-x="1435" d="M176 0v1366h184l711 -1051h8v1051h181v-1366h-175l-720 1065h-9v-1065h-180zM395 1522q35 80 81.5 112.5t109.5 32.5q52 0 149 -41t133 -41q78 0 109 82l92 -68q-21 -70 -73 -107.5t-115 -37.5q-52 0 -149 41t-132 41q-82 0 -115 -84z" />
<glyph unicode="&#xd2;" horiz-adv-x="1527" d="M133 684q0 151 37.5 276.5t112.5 222.5t198 151.5t283 54.5t282.5 -53.5t198 -149.5t113 -222.5t37.5 -279.5q0 -156 -38 -283t-113.5 -223t-197.5 -148.5t-282 -52.5t-282 52.5t-197.5 148.5t-113.5 223t-38 283zM328 682q0 -90 12 -167t42.5 -150t79 -124t125.5 -81.5 t177 -30.5q101 0 178 30.5t125 81.5t78.5 124t42.5 149.5t12 167.5q0 555 -436 555t-436 -555zM514 1671l180 82l277 -244l-101 -61z" />
<glyph unicode="&#xd3;" horiz-adv-x="1527" d="M133 684q0 151 37.5 276.5t112.5 222.5t198 151.5t283 54.5t282.5 -53.5t198 -149.5t113 -222.5t37.5 -279.5q0 -156 -38 -283t-113.5 -223t-197.5 -148.5t-282 -52.5t-282 52.5t-197.5 148.5t-113.5 223t-38 283zM328 682q0 -90 12 -167t42.5 -150t79 -124t125.5 -81.5 t177 -30.5q101 0 178 30.5t125 81.5t78.5 124t42.5 149.5t12 167.5q0 555 -436 555t-436 -555zM633 1511l280 248l177 -86l-357 -225z" />
<glyph unicode="&#xd4;" horiz-adv-x="1527" d="M133 684q0 151 37.5 276.5t112.5 222.5t198 151.5t283 54.5t282.5 -53.5t198 -149.5t113 -222.5t37.5 -279.5q0 -156 -38 -283t-113.5 -223t-197.5 -148.5t-282 -52.5t-282 52.5t-197.5 148.5t-113.5 223t-38 283zM328 682q0 -90 12 -167t42.5 -150t79 -124t125.5 -81.5 t177 -30.5q101 0 178 30.5t125 81.5t78.5 124t42.5 149.5t12 167.5q0 555 -436 555t-436 -555zM455 1542l317 201l322 -201l-78 -102l-242 162l-244 -162z" />
<glyph unicode="&#xd5;" horiz-adv-x="1527" d="M133 684q0 151 37.5 276.5t112.5 222.5t198 151.5t283 54.5t282.5 -53.5t198 -149.5t113 -222.5t37.5 -279.5q0 -156 -38 -283t-113.5 -223t-197.5 -148.5t-282 -52.5t-282 52.5t-197.5 148.5t-113.5 223t-38 283zM328 682q0 -90 12 -167t42.5 -150t79 -124t125.5 -81.5 t177 -30.5q101 0 178 30.5t125 81.5t78.5 124t42.5 149.5t12 167.5q0 555 -436 555t-436 -555zM420 1526q35 80 81 112.5t109 32.5q52 0 149 -41t134 -41q77 0 108 82l93 -67q-21 -70 -73.5 -108t-115.5 -38q-52 0 -148.5 41t-131.5 41q-82 0 -115 -84z" />
<glyph unicode="&#xd6;" horiz-adv-x="1527" d="M133 684q0 151 37.5 276.5t112.5 222.5t198 151.5t283 54.5t282.5 -53.5t198 -149.5t113 -222.5t37.5 -279.5q0 -156 -38 -283t-113.5 -223t-197.5 -148.5t-282 -52.5t-282 52.5t-197.5 148.5t-113.5 223t-38 283zM328 682q0 -90 12 -167t42.5 -150t79 -124t125.5 -81.5 t177 -30.5q101 0 178 30.5t125 81.5t78.5 124t42.5 149.5t12 167.5q0 555 -436 555t-436 -555zM469 1561q0 43 30.5 73.5t71.5 30.5q43 0 74 -30.5t31 -73.5q0 -41 -31 -72t-74 -31q-41 0 -71.5 31t-30.5 72zM852 1561q0 43 30.5 73.5t73.5 30.5q42 0 72.5 -30.5t30.5 -73.5 q0 -41 -31 -72t-72 -31q-42 0 -73 31t-31 72z" />
<glyph unicode="&#xd7;" d="M160 211l321 319l-309 310l109 108l309 -309l311 309l107 -108l-310 -310l318 -319l-109 -109l-317 320l-322 -320z" />
<glyph unicode="&#xd8;" horiz-adv-x="1527" d="M133 684q0 151 37.5 276.5t112.5 222.5t198 151.5t283 54.5q224 0 375 -107l104 131l115 -92l-111 -139q148 -188 148 -498q0 -156 -38 -283t-113.5 -223t-197.5 -148.5t-282 -52.5q-234 0 -385 111l-109 -137l-110 100l112 142q-139 185 -139 491zM328 682 q0 -211 63 -340l645 811q-105 84 -272 84q-436 0 -436 -555zM485 219q108 -90 279 -90q101 0 178 30.5t125 81.5t78.5 124t42.5 149.5t12 167.5q0 217 -70 352z" />
<glyph unicode="&#xd9;" horiz-adv-x="1370" d="M176 530v836h186v-836q0 -93 14.5 -161.5t49.5 -123.5t99.5 -83.5t158.5 -28.5t159 28.5t100 83.5t50 123.5t15 161.5v836h186v-836q0 -285 -121.5 -419t-388.5 -134t-387.5 133.5t-120.5 419.5zM346 1667l180 82l277 -244l-101 -61z" />
<glyph unicode="&#xda;" horiz-adv-x="1370" d="M176 530v836h186v-836q0 -93 14.5 -161.5t49.5 -123.5t99.5 -83.5t158.5 -28.5t159 28.5t100 83.5t50 123.5t15 161.5v836h186v-836q0 -285 -121.5 -419t-388.5 -134t-387.5 133.5t-120.5 419.5zM573 1507l281 248l176 -86l-356 -225z" />
<glyph unicode="&#xdb;" horiz-adv-x="1370" d="M176 530v836h186v-836q0 -93 14.5 -161.5t49.5 -123.5t99.5 -83.5t158.5 -28.5t159 28.5t100 83.5t50 123.5t15 161.5v836h186v-836q0 -285 -121.5 -419t-388.5 -134t-387.5 133.5t-120.5 419.5zM371 1542l317 201l322 -201l-78 -102l-242 162l-244 -162z" />
<glyph unicode="&#xdc;" horiz-adv-x="1370" d="M176 530v836h186v-836q0 -93 14.5 -161.5t49.5 -123.5t99.5 -83.5t158.5 -28.5t159 28.5t100 83.5t50 123.5t15 161.5v836h186v-836q0 -285 -121.5 -419t-388.5 -134t-387.5 133.5t-120.5 419.5zM393 1561q0 43 30.5 73.5t72.5 30.5q43 0 73.5 -30.5t30.5 -73.5 q0 -41 -31 -72t-73 -31q-41 0 -72 31t-31 72zM776 1561q0 43 31 73.5t74 30.5q41 0 71.5 -30.5t30.5 -73.5q0 -41 -30.5 -72t-71.5 -31q-43 0 -74 31t-31 72z" />
<glyph unicode="&#xdd;" horiz-adv-x="1171" d="M27 1366h211l350 -659l352 659h205l-465 -823v-543h-186v537zM492 1491l280 248l176 -86l-356 -226z" />
<glyph unicode="&#xde;" horiz-adv-x="1230" d="M176 0v1366h182v-250q150 10 246 10q119 0 209 -20.5t162.5 -68t110.5 -133.5t38 -208q0 -432 -452 -432h-312v-264h-184zM360 414h273q79 2 131 13.5t93.5 41t61 85t19.5 140.5q0 158 -79 218.5t-257 60.5q-110 0 -242 -12v-547z" />
<glyph unicode="&#xdf;" horiz-adv-x="1089" d="M156 0v1108q0 165 84 250.5t282 85.5q166 0 256 -79t90 -222q0 -100 -47.5 -181.5t-161.5 -160.5v-8q345 -147 345 -441q0 -170 -101 -273.5t-258 -103.5q-120 0 -188 29l28 131q61 -22 121 -22q93 0 154 56.5t61 180.5q0 121 -73 202t-250 142l-23 117q128 85 181 160.5 t53 158.5q0 183 -189 183q-93 0 -139.5 -47.5t-46.5 -165.5v-1100h-178z" />
<glyph unicode="&#xe0;" horiz-adv-x="1083" d="M92 287q0 71 23 128.5t59.5 96t92 66.5t110 43t124 24t122.5 11.5t118 2.5v101q-4 84 -50 121t-140 37q-181 0 -367 -117l-63 125q230 127 446 127q184 0 268.5 -81.5t84.5 -266.5v-492q3 -83 67 -111l-106 -118q-51 19 -79 47t-38 80h-8q-163 -134 -340 -134 q-142 0 -233 83t-91 227zM242 1380l180 82l276 -243l-100 -62zM268 297q0 -92 53.5 -144.5t139.5 -52.5q78 0 142 29t142 88v334q-46 0 -81 -1t-88 -6.5t-92 -15.5t-82 -29t-70.5 -45t-45.5 -66.5t-18 -90.5z" />
<glyph unicode="&#xe1;" horiz-adv-x="1083" d="M92 287q0 71 23 128.5t59.5 96t92 66.5t110 43t124 24t122.5 11.5t118 2.5v101q-4 84 -50 121t-140 37q-181 0 -367 -117l-63 125q230 127 446 127q184 0 268.5 -81.5t84.5 -266.5v-492q3 -83 67 -111l-106 -118q-51 19 -79 47t-38 80h-8q-163 -134 -340 -134 q-142 0 -233 83t-91 227zM268 297q0 -92 53.5 -144.5t139.5 -52.5q78 0 142 29t142 88v334q-46 0 -81 -1t-88 -6.5t-92 -15.5t-82 -29t-70.5 -45t-45.5 -66.5t-18 -90.5zM391 1221l281 247l176 -86l-356 -225z" />
<glyph unicode="&#xe2;" horiz-adv-x="1083" d="M92 287q0 71 23 128.5t59.5 96t92 66.5t110 43t124 24t122.5 11.5t118 2.5v101q-4 84 -50 121t-140 37q-181 0 -367 -117l-63 125q230 127 446 127q184 0 268.5 -81.5t84.5 -266.5v-492q3 -83 67 -111l-106 -118q-51 19 -79 47t-38 80h-8q-163 -134 -340 -134 q-142 0 -233 83t-91 227zM217 1253l318 201l321 -201l-78 -102l-241 162l-244 -162zM268 297q0 -92 53.5 -144.5t139.5 -52.5q78 0 142 29t142 88v334q-46 0 -81 -1t-88 -6.5t-92 -15.5t-82 -29t-70.5 -45t-45.5 -66.5t-18 -90.5z" />
<glyph unicode="&#xe3;" horiz-adv-x="1083" d="M92 287q0 71 23 128.5t59.5 96t92 66.5t110 43t124 24t122.5 11.5t118 2.5v101q-4 84 -50 121t-140 37q-181 0 -367 -117l-63 125q230 127 446 127q184 0 268.5 -81.5t84.5 -266.5v-492q3 -83 67 -111l-106 -118q-51 19 -79 47t-38 80h-8q-163 -134 -340 -134 q-142 0 -233 83t-91 227zM186 1235q35 80 81.5 112.5t109.5 32.5q52 0 148.5 -41t133.5 -41q78 0 109 82l92 -67q-21 -71 -73 -108.5t-115 -37.5q-52 0 -149 41t-132 41q-82 0 -115 -84zM268 297q0 -92 53.5 -144.5t139.5 -52.5q78 0 142 29t142 88v334q-46 0 -81 -1 t-88 -6.5t-92 -15.5t-82 -29t-70.5 -45t-45.5 -66.5t-18 -90.5z" />
<glyph unicode="&#xe4;" horiz-adv-x="1083" d="M92 287q0 71 23 128.5t59.5 96t92 66.5t110 43t124 24t122.5 11.5t118 2.5v101q-4 84 -50 121t-140 37q-181 0 -367 -117l-63 125q230 127 446 127q184 0 268.5 -81.5t84.5 -266.5v-492q3 -83 67 -111l-106 -118q-51 19 -79 47t-38 80h-8q-163 -134 -340 -134 q-142 0 -233 83t-91 227zM248 1274q0 43 30.5 73.5t71.5 30.5q43 0 74 -30.5t31 -73.5q0 -41 -31 -72t-74 -31q-41 0 -71.5 31t-30.5 72zM268 297q0 -92 53.5 -144.5t139.5 -52.5q78 0 142 29t142 88v334q-46 0 -81 -1t-88 -6.5t-92 -15.5t-82 -29t-70.5 -45t-45.5 -66.5 t-18 -90.5zM631 1274q0 43 30.5 73.5t73.5 30.5q41 0 72 -31t31 -73q0 -41 -31 -72t-72 -31q-43 0 -73.5 30.5t-30.5 72.5z" />
<glyph unicode="&#xe5;" horiz-adv-x="1083" d="M92 287q0 71 23 128.5t59.5 96t92 66.5t110 43t124 24t122.5 11.5t118 2.5v101q-4 84 -50 121t-140 37q-181 0 -367 -117l-63 125q230 127 446 127q184 0 268.5 -81.5t84.5 -266.5v-492q3 -83 67 -111l-106 -118q-51 19 -79 47t-38 80h-8q-163 -134 -340 -134 q-142 0 -233 83t-91 227zM268 297q0 -92 53.5 -144.5t139.5 -52.5q78 0 142 29t142 88v334q-46 0 -81 -1t-88 -6.5t-92 -15.5t-82 -29t-70.5 -45t-45.5 -66.5t-18 -90.5zM352 1333q0 82 57 136.5t140 54.5q82 0 138 -55t56 -136t-56 -135.5t-138 -54.5t-139.5 54.5 t-57.5 135.5zM438 1333q0 -47 32 -78.5t79 -31.5q46 0 77 31.5t31 78.5t-31 79t-77 32q-47 0 -79 -32t-32 -79z" />
<glyph unicode="&#xe6;" horiz-adv-x="1757" d="M92 287q0 84 31 148t85.5 106t137 69t179 38t216.5 11v52q0 109 -37.5 155.5t-146.5 46.5q-91 0 -190.5 -31.5t-182.5 -86.5l-63 131q117 64 222 95.5t222 31.5q253 0 305 -172q121 174 344 174q204 0 322.5 -138.5t118.5 -394.5q0 -38 -4 -67h-723q3 -161 82.5 -248.5 t226.5 -87.5q168 0 301 104l66 -125q-171 -121 -369 -121q-263 0 -391 181q-201 -181 -430 -181q-144 0 -233 82.5t-89 227.5zM268 295q0 -84 57 -140.5t136 -56.5q147 0 325 158q-43 88 -43 246v45q-241 0 -358 -61t-117 -191zM926 580h563q-2 73 -17.5 131t-46.5 106 t-85 74.5t-128 26.5q-127 0 -206.5 -89.5t-79.5 -248.5z" />
<glyph unicode="&#xe7;" horiz-adv-x="1013" d="M109 508q0 246 125.5 395.5t361.5 149.5q195 0 356 -129l-78 -125q-112 112 -272 112q-69 0 -123.5 -22t-89 -59t-57 -88.5t-32 -107t-9.5 -118.5q0 -81 15.5 -149t50 -125.5t97 -90t148.5 -32.5q83 0 150.5 26t134.5 84l61 -125q-153 -119 -330 -127l-51 -94l2 -2 q21 6 49 6q71 0 111.5 -37.5t40.5 -109.5q0 -78 -54.5 -123t-148.5 -45q-95 0 -170 47l29 72q70 -39 135 -39q45 0 75 20t30 64q0 42 -27.5 62t-73.5 20q-41 0 -78 -15l-36 33l73 146q-203 18 -309 160.5t-106 365.5z" />
<glyph unicode="&#xe8;" horiz-adv-x="1112" d="M109 514q0 255 128 398t343 143q202 0 316 -142.5t114 -375.5q0 -57 -2 -80h-721q0 -161 79 -251.5t230 -90.5q158 0 305 106l64 -123q-169 -121 -375 -121q-234 0 -357.5 143t-123.5 394zM266 1380l180 82l277 -243l-100 -62zM287 578h557q0 70 -15 130.5t-45.5 109.5 t-82.5 77.5t-119 28.5q-81 0 -140.5 -30t-92 -81.5t-47.5 -110t-15 -124.5z" />
<glyph unicode="&#xe9;" horiz-adv-x="1112" d="M109 514q0 255 128 398t343 143q202 0 316 -142.5t114 -375.5q0 -57 -2 -80h-721q0 -161 79 -251.5t230 -90.5q158 0 305 106l64 -123q-169 -121 -375 -121q-234 0 -357.5 143t-123.5 394zM287 578h557q0 70 -15 130.5t-45.5 109.5t-82.5 77.5t-119 28.5 q-81 0 -140.5 -30t-92 -81.5t-47.5 -110t-15 -124.5zM451 1221l280 247l176 -86l-356 -225z" />
<glyph unicode="&#xea;" horiz-adv-x="1112" d="M109 514q0 255 128 398t343 143q202 0 316 -142.5t114 -375.5q0 -57 -2 -80h-721q0 -161 79 -251.5t230 -90.5q158 0 305 106l64 -123q-169 -121 -375 -121q-234 0 -357.5 143t-123.5 394zM258 1255l317 201l322 -201l-78 -102l-241 162l-244 -162zM287 578h557 q0 70 -15 130.5t-45.5 109.5t-82.5 77.5t-119 28.5q-81 0 -140.5 -30t-92 -81.5t-47.5 -110t-15 -124.5z" />
<glyph unicode="&#xeb;" horiz-adv-x="1112" d="M109 514q0 255 128 398t343 143q202 0 316 -142.5t114 -375.5q0 -57 -2 -80h-721q0 -161 79 -251.5t230 -90.5q158 0 305 106l64 -123q-169 -121 -375 -121q-234 0 -357.5 143t-123.5 394zM285 1274q0 43 30.5 73.5t71.5 30.5q43 0 74 -30.5t31 -73.5q0 -41 -31 -72 t-74 -31q-41 0 -71.5 31t-30.5 72zM287 578h557q0 70 -15 130.5t-45.5 109.5t-82.5 77.5t-119 28.5q-81 0 -140.5 -30t-92 -81.5t-47.5 -110t-15 -124.5zM668 1274q0 43 30.5 73.5t73.5 30.5q41 0 71.5 -30.5t30.5 -73.5q0 -41 -30.5 -72t-71.5 -31q-42 0 -73 30.5t-31 72.5 z" />
<glyph unicode="&#xec;" horiz-adv-x="489" d="M-66 1380l181 82l276 -243l-100 -62zM156 0v1028h178v-1028h-178z" />
<glyph unicode="&#xed;" horiz-adv-x="489" d="M113 1221l280 247l176 -86l-356 -225zM156 0v1028h178v-1028h-178z" />
<glyph unicode="&#xee;" horiz-adv-x="489" d="M-68 1255l318 201l321 -201l-77 -102l-242 162l-244 -162zM156 0v1028h178v-1028h-178z" />
<glyph unicode="&#xef;" horiz-adv-x="489" d="M-45 1274q0 43 30.5 73.5t71.5 30.5q43 0 74 -30.5t31 -73.5q0 -41 -31 -72t-74 -31q-41 0 -71.5 31t-30.5 72zM156 0v1028h178v-1028h-178zM338 1274q0 43 30.5 73.5t73.5 30.5q42 0 72.5 -31t30.5 -73q0 -41 -31 -72t-72 -31q-42 0 -73 30.5t-31 72.5z" />
<glyph unicode="&#xf0;" horiz-adv-x="1202" d="M139 498q0 495 418 495q100 0 168 -30t113 -99h8q-27 169 -129 332l-246 -123l-51 105l233 116q-55 69 -123 129l156 43q79 -74 107 -106l161 90l52 -107l-146 -81q91 -134 137.5 -331t46.5 -394q0 -263 -112.5 -410t-351.5 -147q-110 0 -195.5 39t-138.5 109.5t-80 164 t-27 205.5zM319 498q0 -87 13.5 -153.5t44.5 -119t85.5 -80.5t131.5 -28q270 0 270 360q0 59 -3 102.5t-12.5 91.5t-28.5 80.5t-48.5 60t-75.5 41t-106 13.5q-71 0 -122 -21.5t-79 -53.5t-44.5 -84t-21 -98.5t-4.5 -110.5z" />
<glyph unicode="&#xf1;" horiz-adv-x="1155" d="M156 0v1028h153l15 -129h8q101 154 311 154q105 0 175.5 -27t109.5 -83t55 -127.5t16 -172.5v-643h-178v602q0 77 -7 124.5t-29 91t-68 63.5t-119 20q-128 0 -196 -67t-68 -189v-645h-178zM248 1235q35 80 81 112.5t109 32.5q52 0 149.5 -41t133.5 -41q77 0 108 82 l93 -67q-21 -70 -73.5 -108t-115.5 -38q-52 0 -148.5 41t-131.5 41q-82 0 -115 -84z" />
<glyph unicode="&#xf2;" horiz-adv-x="1175" d="M109 512q0 116 27 211.5t82.5 170.5t149.5 117t218 42q160 0 269.5 -70.5t160.5 -190t51 -280.5q0 -115 -28.5 -211t-86 -169t-151 -114t-215.5 -41q-121 0 -214 40.5t-149.5 113.5t-85 169t-28.5 212zM283 1380l180 82l276 -243l-100 -62zM291 514q0 -399 297 -399 t297 399q0 397 -297 397t-297 -397z" />
<glyph unicode="&#xf3;" horiz-adv-x="1175" d="M109 512q0 116 27 211.5t82.5 170.5t149.5 117t218 42q160 0 269.5 -70.5t160.5 -190t51 -280.5q0 -115 -28.5 -211t-86 -169t-151 -114t-215.5 -41q-121 0 -214 40.5t-149.5 113.5t-85 169t-28.5 212zM291 514q0 -399 297 -399t297 399q0 397 -297 397t-297 -397z M459 1221l280 247l176 -86l-356 -225z" />
<glyph unicode="&#xf4;" horiz-adv-x="1175" d="M109 512q0 116 27 211.5t82.5 170.5t149.5 117t218 42q160 0 269.5 -70.5t160.5 -190t51 -280.5q0 -115 -28.5 -211t-86 -169t-151 -114t-215.5 -41q-121 0 -214 40.5t-149.5 113.5t-85 169t-28.5 212zM270 1255l318 201l321 -201l-78 -102l-241 162l-244 -162zM291 514 q0 -399 297 -399t297 399q0 397 -297 397t-297 -397z" />
<glyph unicode="&#xf5;" horiz-adv-x="1175" d="M109 512q0 116 27 211.5t82.5 170.5t149.5 117t218 42q160 0 269.5 -70.5t160.5 -190t51 -280.5q0 -115 -28.5 -211t-86 -169t-151 -114t-215.5 -41q-121 0 -214 40.5t-149.5 113.5t-85 169t-28.5 212zM254 1235q35 80 81 112.5t109 32.5q52 0 149.5 -41t133.5 -41 q78 0 109 82l92 -67q-21 -70 -73.5 -108t-115.5 -38q-52 0 -148.5 41t-131.5 41q-82 0 -115 -84zM291 514q0 -399 297 -399t297 399q0 397 -297 397t-297 -397z" />
<glyph unicode="&#xf6;" horiz-adv-x="1175" d="M109 512q0 116 27 211.5t82.5 170.5t149.5 117t218 42q160 0 269.5 -70.5t160.5 -190t51 -280.5q0 -115 -28.5 -211t-86 -169t-151 -114t-215.5 -41q-121 0 -214 40.5t-149.5 113.5t-85 169t-28.5 212zM291 514q0 -399 297 -399t297 399q0 397 -297 397t-297 -397z M297 1274q0 43 30.5 73.5t71.5 30.5q43 0 74 -30.5t31 -73.5q0 -41 -31 -72t-74 -31q-41 0 -71.5 31t-30.5 72zM680 1274q0 43 30.5 73.5t73.5 30.5q42 0 72.5 -31t30.5 -73q0 -41 -31 -72t-72 -31q-42 0 -73 30.5t-31 72.5z" />
<glyph unicode="&#xf7;" d="M104 459v155h967v-155h-967zM479 199q0 46 33 78t80 32q46 0 78 -32t32 -78t-32.5 -79.5t-77.5 -33.5q-47 0 -80 33.5t-33 79.5zM479 881q0 46 33 78t80 32q46 0 78 -32t32 -78t-32.5 -79.5t-77.5 -33.5q-47 0 -80 33.5t-33 79.5z" />
<glyph unicode="&#xf8;" horiz-adv-x="1175" d="M84 45l109 129q-84 133 -84 338q0 116 27 211.5t82.5 170.5t149.5 117t218 42q166 0 282 -80l109 129l92 -80l-113 -133q111 -141 111 -377q0 -115 -28.5 -211t-86 -169t-151 -114t-215.5 -41q-197 0 -316 103l-100 -117zM291 514q0 -118 24 -197l453 539q-68 55 -180 55 q-297 0 -297 -397zM373 203q75 -88 215 -88q297 0 297 399q0 146 -41 242z" />
<glyph unicode="&#xf9;" horiz-adv-x="1136" d="M156 393v635h178v-543q0 -64 2.5 -106.5t9.5 -87.5t22 -72t38.5 -49.5t59.5 -32.5t85 -10q138 0 195 69t57 201v631h178v-1028h-150l-16 129h-6q-90 -152 -309 -152q-87 0 -147 18.5t-106.5 64.5t-68.5 128.5t-22 204.5zM225 1380l181 82l276 -243l-100 -62z" />
<glyph unicode="&#xfa;" horiz-adv-x="1136" d="M156 393v635h178v-543q0 -64 2.5 -106.5t9.5 -87.5t22 -72t38.5 -49.5t59.5 -32.5t85 -10q138 0 195 69t57 201v631h178v-1028h-150l-16 129h-6q-90 -152 -309 -152q-87 0 -147 18.5t-106.5 64.5t-68.5 128.5t-22 204.5zM446 1221l281 247l176 -86l-356 -225z" />
<glyph unicode="&#xfb;" horiz-adv-x="1136" d="M156 393v635h178v-543q0 -64 2.5 -106.5t9.5 -87.5t22 -72t38.5 -49.5t59.5 -32.5t85 -10q138 0 195 69t57 201v631h178v-1028h-150l-16 129h-6q-90 -152 -309 -152q-87 0 -147 18.5t-106.5 64.5t-68.5 128.5t-22 204.5zM256 1255l317 201l322 -201l-78 -102l-242 162 l-243 -162z" />
<glyph unicode="&#xfc;" horiz-adv-x="1136" d="M156 393v635h178v-543q0 -64 2.5 -106.5t9.5 -87.5t22 -72t38.5 -49.5t59.5 -32.5t85 -10q138 0 195 69t57 201v631h178v-1028h-150l-16 129h-6q-90 -152 -309 -152q-87 0 -147 18.5t-106.5 64.5t-68.5 128.5t-22 204.5zM285 1274q0 43 30.5 73.5t71.5 30.5 q43 0 74 -30.5t31 -73.5q0 -41 -31 -72t-74 -31q-41 0 -71.5 31t-30.5 72zM668 1274q0 43 30.5 73.5t73.5 30.5q41 0 71.5 -30.5t30.5 -73.5q0 -41 -30.5 -72t-71.5 -31q-42 0 -73 30.5t-31 72.5z" />
<glyph unicode="&#xfd;" horiz-adv-x="1013" d="M37 1028h192l285 -801h8l264 801h191l-432 -1161q-73 -199 -140 -264.5t-204 -65.5q-43 0 -111 6v152q35 -6 90 -6q76 0 112 40.5t83 172.5l49 135zM408 1221l280 247l176 -86l-356 -225z" />
<glyph unicode="&#xfe;" horiz-adv-x="1155" d="M156 -451v1885h166v-527h4q104 146 305 146q113 0 195.5 -41.5t129.5 -116.5t69 -169t22 -210q0 -114 -26 -210t-77 -169.5t-134.5 -115t-191.5 -41.5q-179 0 -282 147l-4 2v-580h-176zM334 414q0 -137 66.5 -217t189.5 -80q274 0 274 399q0 72 -6 126.5t-23 108 t-46.5 87t-79 54.5t-117.5 21q-124 0 -191 -62t-67 -183v-254z" />
<glyph unicode="&#xff;" horiz-adv-x="1013" d="M37 1028h192l285 -801h8l264 801h191l-432 -1161q-73 -199 -140 -264.5t-204 -65.5q-43 0 -111 6v152q35 -6 90 -6q76 0 112 40.5t83 172.5l49 135zM227 1274q0 42 30.5 73t72.5 31q43 0 73.5 -30.5t30.5 -73.5q0 -42 -31 -72.5t-73 -30.5q-41 0 -72 31t-31 72zM610 1274 q0 43 31 73.5t74 30.5q41 0 71.5 -30.5t30.5 -73.5q0 -41 -30.5 -72t-71.5 -31q-43 0 -74 31t-31 72z" />
<glyph unicode="&#x152;" horiz-adv-x="1830" d="M133 684q0 121 21.5 224.5t68.5 193t117 152.5t173.5 99t231.5 36q122 0 222 -23h764v-158h-578v-407h518v-160h-518v-485h600v-156h-786q-117 -23 -222 -23q-159 0 -278.5 52.5t-191.5 148.5t-107 222.5t-35 283.5zM328 682q0 -92 11 -168t39.5 -149.5t75 -123.5 t122.5 -81t176 -31q118 0 215 33v1040q-93 35 -215 35q-100 0 -176 -30.5t-122.5 -80.5t-75 -123.5t-39.5 -150.5t-11 -170z" />
<glyph unicode="&#x153;" horiz-adv-x="1898" d="M109 514q0 253 123 396t356 143q135 0 234.5 -56t154.5 -168q59 109 156 167.5t223 58.5q204 0 322 -142t118 -391q0 -5 -1 -27.5t-1 -37.5h-727q3 -164 83 -251t230 -87q154 0 299 106l64 -127q-169 -121 -367 -121q-272 0 -395 224q-115 -224 -393 -224 q-230 0 -354.5 138.5t-124.5 398.5zM291 514q0 -395 297 -395q144 0 219.5 94t75.5 301q0 90 -15 159t-48.5 122.5t-91.5 81.5t-140 28t-140.5 -28t-92 -81.5t-49 -122.5t-15.5 -159zM1067 580h563q-2 52 -10.5 98t-29 91t-50 77t-76.5 52t-106 20q-132 0 -211 -90.5 t-80 -247.5z" />
<glyph unicode="&#x178;" horiz-adv-x="1171" d="M27 1366h211l350 -659l352 659h205l-465 -823v-543h-186v537zM297 1561q0 43 30.5 73.5t71.5 30.5q43 0 74 -30.5t31 -73.5q0 -41 -31 -72t-74 -31q-41 0 -71.5 31t-30.5 72zM680 1561q0 43 30.5 73.5t73.5 30.5q42 0 72.5 -30.5t30.5 -73.5q0 -41 -31 -72t-72 -31 q-42 0 -73 31t-31 72z" />
<glyph unicode="&#x2c6;" horiz-adv-x="733" d="M47 1255l318 201l321 -201l-78 -102l-241 162l-244 -162z" />
<glyph unicode="&#x2dc;" horiz-adv-x="733" d="M31 1235q35 80 81 112.5t109 32.5q51 0 149 -41t134 -41q77 0 108 82l93 -67q-21 -70 -73.5 -108t-115.5 -38q-52 0 -148.5 41t-131.5 41q-82 0 -115 -84z" />
<glyph unicode="&#x2000;" horiz-adv-x="879" />
<glyph unicode="&#x2001;" horiz-adv-x="1759" />
<glyph unicode="&#x2002;" horiz-adv-x="879" />
<glyph unicode="&#x2003;" horiz-adv-x="1759" />
<glyph unicode="&#x2004;" horiz-adv-x="586" />
<glyph unicode="&#x2005;" horiz-adv-x="439" />
<glyph unicode="&#x2006;" horiz-adv-x="293" />
<glyph unicode="&#x2007;" horiz-adv-x="293" />
<glyph unicode="&#x2008;" horiz-adv-x="219" />
<glyph unicode="&#x2009;" horiz-adv-x="351" />
<glyph unicode="&#x200a;" horiz-adv-x="97" />
<glyph unicode="&#x2010;" horiz-adv-x="770" d="M106 449v165h558v-165h-558z" />
<glyph unicode="&#x2011;" horiz-adv-x="770" d="M106 449v165h558v-165h-558z" />
<glyph unicode="&#x2012;" horiz-adv-x="770" d="M106 449v165h558v-165h-558z" />
<glyph unicode="&#x2013;" horiz-adv-x="1224" d="M100 463v139h1024v-139h-1024z" />
<glyph unicode="&#x2014;" horiz-adv-x="1785" d="M100 465v135h1586v-135h-1586z" />
<glyph unicode="&#x2018;" horiz-adv-x="440" d="M39 1006l174 428h129l-84 -428h-219z" />
<glyph unicode="&#x2019;" horiz-adv-x="440" d="M98 1006l84 428h219l-176 -428h-127z" />
<glyph unicode="&#x201a;" horiz-adv-x="440" d="M98 -313l84 428h219l-176 -428h-127z" />
<glyph unicode="&#x201c;" horiz-adv-x="825" d="M39 1006l176 428h127l-84 -428h-219zM426 1006l174 428h127l-84 -428h-217z" />
<glyph unicode="&#x201d;" horiz-adv-x="825" d="M98 1006l84 428h219l-176 -428h-127zM483 1006l84 428h219l-176 -428h-127z" />
<glyph unicode="&#x201e;" horiz-adv-x="825" d="M98 -315l84 430h219l-176 -430h-127zM483 -315l84 430h219l-176 -430h-127z" />
<glyph unicode="&#x2022;" horiz-adv-x="1067" d="M219 674q0 130 91.5 221.5t221.5 91.5q132 0 224 -91t92 -222t-92 -222.5t-224 -91.5q-130 0 -221.5 91.5t-91.5 222.5z" />
<glyph unicode="&#x2026;" horiz-adv-x="1435" d="M96 88q0 49 33.5 79t87.5 30q55 0 88 -29.5t33 -79.5t-33 -79t-88 -29q-54 0 -87.5 29.5t-33.5 78.5zM596 88q0 49 33.5 79t87.5 30q56 0 89.5 -30t33.5 -79t-33.5 -78.5t-87.5 -29.5q-56 0 -89.5 29.5t-33.5 78.5zM1098 88q0 50 33 79.5t88 29.5t87.5 -29.5t32.5 -79.5 q0 -49 -33 -78.5t-87 -29.5t-87.5 29.5t-33.5 78.5z" />
<glyph unicode="&#x202f;" horiz-adv-x="351" />
<glyph unicode="&#x2039;" horiz-adv-x="538" d="M39 627l287 401l123 -67l-248 -336l248 -330l-123 -70z" />
<glyph unicode="&#x203a;" horiz-adv-x="538" d="M92 295l246 330l-246 336l123 67l285 -401l-285 -402z" />
<glyph unicode="&#x205f;" horiz-adv-x="439" />
<glyph unicode="&#x20ac;" d="M43 477l2 109h143q-4 54 -4 100q0 57 4 90h-145l2 109h152q12 92 30 161.5t53.5 136.5t85.5 110t127.5 69.5t178.5 26.5q129 0 228 -49.5t194 -155.5l-111 -111q-65 88 -138 126t-167 38q-150 0 -215 -81t-86 -271h545v-109h-549q-2 -31 -2 -90q0 -73 2 -100h549v-109 h-541q4 -39 8 -64t14 -65.5t22.5 -67.5t34.5 -58.5t50.5 -50t71 -31.5t94.5 -13q108 0 183.5 48t146.5 147l104 -113q-92 -115 -195.5 -174.5t-244.5 -59.5q-97 0 -171 23t-124.5 64t-86.5 105.5t-56.5 138t-34.5 171.5h-154z" />
<glyph unicode="&#x2122;" horiz-adv-x="1306" d="M96 1343v91h430v-91h-161v-389h-107v389h-162zM637 954v480h92l174 -252l172 252h94v-480h-102v299l-164 -233l-166 233v-299h-100z" />
<glyph unicode="&#x25fc;" horiz-adv-x="1024" d="M0 0v1024h1024v-1024h-1024z" />
</font>
</defs>
</svg>
