<?xml version="1.0" encoding="UTF-8" standalone="no"?>
<!-- Generator: Adobe Illustrator 18.0.0, SVG Export Plug-In . SVG Version: 6.00 Build 0)  -->

<svg
   xmlns:dc="http://purl.org/dc/elements/1.1/"
   xmlns:cc="http://creativecommons.org/ns#"
   xmlns:rdf="http://www.w3.org/1999/02/22-rdf-syntax-ns#"
   xmlns:svg="http://www.w3.org/2000/svg"
   xmlns="http://www.w3.org/2000/svg"
   xmlns:sodipodi="http://sodipodi.sourceforge.net/DTD/sodipodi-0.dtd"
   xmlns:inkscape="http://www.inkscape.org/namespaces/inkscape"
   version="1.1"
   id="Layer_1"
   x="0px"
   y="0px"
   viewBox="0 0 347.29999 205.59756"
   enable-background="new 0 0 612 792"
   xml:space="preserve"
   inkscape:version="0.91 r13725"
   sodipodi:docname="RCloud-flexo.svg"
   width="347.29999"
   height="205.59756"><metadata
     id="metadata4244"><rdf:RDF><cc:Work
         rdf:about=""><dc:format>image/svg+xml</dc:format><dc:type
           rdf:resource="http://purl.org/dc/dcmitype/StillImage" /><dc:title /></cc:Work></rdf:RDF></metadata><defs
     id="defs4242" /><sodipodi:namedview
     pagecolor="#ffffff"
     bordercolor="#666666"
     borderopacity="1"
     objecttolerance="10"
     gridtolerance="10"
     guidetolerance="10"
     inkscape:pageopacity="0"
     inkscape:pageshadow="2"
     inkscape:window-width="1687"
     inkscape:window-height="1006"
     id="namedview4240"
     showgrid="false"
     fit-margin-top="10"
     fit-margin-left="10"
     fit-margin-right="10"
     fit-margin-bottom="10"
     inkscape:zoom="3.1039448"
     inkscape:cx="173.64999"
     inkscape:cy="102.79878"
     inkscape:window-x="0"
     inkscape:window-y="0"
     inkscape:window-maximized="0"
     inkscape:current-layer="g4537" /><g
     id="g4537"
     transform="translate(1e-5,0)"><g
       transform="translate(-132.00001,-350.3)"
       id="g4211"><linearGradient
         y2="361.19299"
         x2="173.24879"
         y1="428.09921"
         x1="173.24879"
         gradientUnits="userSpaceOnUse"
         id="SVGID_1_"><stop
           id="stop4214"
           style="stop-color:#48C8F5"
           offset="0" /><stop
           id="stop4216"
           style="stop-color:#48C2EF"
           offset="0.1514" /><stop
           id="stop4218"
           style="stop-color:#3FB4E3"
           offset="0.363" /><stop
           id="stop4220"
           style="stop-color:#31A0D3"
           offset="0.61" /><stop
           id="stop4222"
           style="stop-color:#1986BE"
           offset="0.8817" /><stop
           id="stop4224"
           style="stop-color:#077AB5"
           offset="1" /></linearGradient><path
         style="fill:url(#SVGID_1_)"
         inkscape:connector-curvature="0"
         id="path4226"
         d="m 204.5,423.3 -15.8,-19.6 c 9.8,-2.8 15.1,-10.4 15.1,-20.5 0,-14.9 -9.7,-22.9 -29.2,-22.9 l -21.6,0 c -7.1,0 -11,4.2 -11,12 l 0,58 21.6,0 0,-21.8 3.9,0 9.9,13.2 c 4.5,6.3 7.9,9.2 14.6,9.2 9.3,-0.1 13.1,-6.7 12.5,-7.6 z m -25,-30.1 -20,0 c -3.3,0 -6,-2.7 -6,-6 0,-3.3 2.7,-6 6,-6 0.3,0 0.7,0 1,0.1 0.8,-4.9 5,-8.7 10.2,-8.7 3.7,0 7,2 8.8,4.9 0,0 0,0 0,0 4.3,0 7.8,3.5 7.8,7.8 0.1,4.4 -3.4,7.9 -7.8,7.9 z" /><g
         id="g4228"><path
           style="fill:#8a8888"
           inkscape:connector-curvature="0"
           id="path4230"
           d="m 247,363.5 c 16.4,0 24.6,9.3 24.6,13.8 0,4.8 -5.9,6.1 -6.1,5.7 -3.7,-6.6 -11.1,-10.1 -18.5,-10.1 -13.2,0 -22.5,10 -22.5,24.5 0,14.4 9.6,24.6 22.7,24.6 8.8,0 16.2,-4.3 18.9,-11.4 0.2,-0.5 6.5,0.7 6.5,5.6 0,4.9 -8.6,15.3 -26,15.3 -19.4,0 -32.9,-13.9 -32.9,-33.8 0,-20.1 13.7,-34.2 33.3,-34.2 z" /><path
           style="fill:#8a8888"
           inkscape:connector-curvature="0"
           id="path4232"
           d="m 282.7,361.9 c 0,-0.3 1.7,-1.1 3.6,-1.1 3.1,0 6.4,1.6 6.4,8.6 l 0,60.8 -10,0 0,-68.3 z" /><path
           style="fill:#8a8888"
           inkscape:connector-curvature="0"
           id="path4234"
           d="m 328.9,380.3 c 14.8,0 25.4,10.7 25.4,25.7 0,14.8 -10.5,25.5 -25.5,25.5 -15,0 -25.5,-10.6 -25.5,-25.7 0,-14.9 10.5,-25.5 25.6,-25.5 z m -0.1,43 c 9.3,0 16.2,-7.4 16.2,-17.3 0,-10.1 -6.8,-17.5 -16.2,-17.5 -9.3,0 -16.3,7.3 -16.3,17.3 0,10 7,17.5 16.3,17.5 z" /><path
           style="fill:#8a8888"
           inkscape:connector-curvature="0"
           id="path4236"
           d="m 364.2,381.6 9.9,0 0,27.8 c 0,8.4 4.2,13.3 11.6,13.3 6.1,0 10.8,-3.4 13.3,-8.6 l 0,-32.5 9.9,0 0,47.9 c 0,0.3 -1.6,1.1 -3.5,1.1 -3,0 -6.2,-1.4 -6.4,-7.7 -3.4,4.9 -8.7,8.5 -16.2,8.5 -12.8,0 -18.7,-8.7 -18.7,-20.8 l 0,-29 z" /><path
           style="fill:#8a8888"
           inkscape:connector-curvature="0"
           id="path4238"
           d="m 442.6,380.3 c 7.9,0 13.8,3.6 16.7,8 l 0,-26.5 c 0,-0.3 1.7,-1.1 3.6,-1.1 3.1,0 6.4,1.6 6.4,8.6 l 0,60.8 -9.9,0 0,-8.1 c -3.8,5.9 -9.4,9.4 -17.1,9.4 -13,0 -22.7,-10.2 -22.7,-25.6 0,-15.3 9.5,-25.5 23,-25.5 z m 1.6,42.9 c 8.1,0 15.1,-6 15.1,-14.2 l 0,-10.3 c -2.5,-6.2 -7.5,-10 -14.9,-10 -9.1,0 -15.2,6.9 -15.2,17.3 0,10 6.3,17.2 15,17.2 z" /></g></g><text
       sodipodi:linespacing="125%"
       id="text4246"
       y="136.01534"
       x="199.47557"
       style="font-style:normal;font-variant:normal;font-weight:normal;font-stretch:normal;font-size:40px;line-height:125%;font-family:Osaka;-inkscape-font-specification:Osaka;text-align:center;letter-spacing:0px;word-spacing:0px;writing-mode:lr-tb;text-anchor:middle;fill:#808080;fill-opacity:1;stroke:none;stroke-width:1px;stroke-linecap:butt;stroke-linejoin:miter;stroke-opacity:1"
       xml:space="preserve"><tspan
         y="136.01534"
         x="199.47557"
         id="tspan4248"
         sodipodi:role="line"
         style="font-style:normal;font-variant:normal;font-weight:900;font-stretch:normal;font-size:40px;line-height:125%;font-family:'Arial Black';-inkscape-font-specification:'Arial Black, Heavy';text-align:center;writing-mode:lr-tb;text-anchor:middle">RCAP</tspan></text>
<g
       transform="matrix(0.39723115,0,0,0.39723115,88.371269,101.84714)"
       id="g4530"><rect
         style="fill:none"
         x="0"
         y="0"
         width="100"
         height="100"
         class="bk"
         id="rect4514" /><g
         transform="translate(50,50)"
         id="g4516"><g
           id="g4518"><g
             transform="translate(-50,-50)"
             id="g4520"><path
               style="fill:#ff0022"
               inkscape:connector-curvature="0"
               d="m 90,30.2 c 0,-11 -9,-20.1 -20,-20.1 -11,0 -20,9.1 -20,20.2 0,0.2 0,-0.3 0,0.7 l 0,0 c 0,-1 0,-0.6 0,-0.8 0,-11 -9,-20.1 -20,-20.1 -11,0 -20,9.1 -20,20.2 0,0.2 0,-0.3 0,0.7 l 0,0 C 10.3,51 40,70.5 50,86 60,70.5 89.7,51 90,31 l 0,0 c 0,-1 0,-0.6 0,-0.8 z"
               id="path4522" /></g><animateTransform
             attributeName="transform"
             type="scale"
             from="1.3"
             to="0.9"
             dur="1s"
             repeatCount="indefinite"
             calcMode="spline"
             values="1.3;0.9;1.1;0.9"
             keyTimes="0;0.3;0.301;1"
             keySplines="0 0.75 0.25 1;0 1 0 1;0 .75 .25 1" /></g></g></g></g></svg>